<?xml version="1.0" standalone="no"?>
<!DOCTYPE svg PUBLIC "-//W3C//DTD SVG 20010904//EN"
 "http://www.w3.org/TR/2001/REC-SVG-20010904/DTD/svg10.dtd">
<svg version="1.0" xmlns="http://www.w3.org/2000/svg"
 width="512.000000pt" height="512.000000pt" viewBox="0 0 512.000000 512.000000"
 preserveAspectRatio="xMidYMid meet">
<metadata>
Created by potrace 1.14, written by Peter Selinger 2001-2017
</metadata>
<g transform="translate(0.000000,512.000000) scale(0.100000,-0.100000)"
fill="#000000" stroke="none">
<path d="M586 5105 c4 -8 10 -12 15 -9 5 3 9 3 9 0 0 -3 -14 -13 -31 -22 -18
-9 -28 -11 -24 -4 5 7 -3 6 -21 -3 -16 -8 -35 -12 -43 -9 -9 3 -11 0 -6 -8 5
-9 2 -10 -14 -5 -13 4 -21 2 -21 -5 0 -7 -7 -10 -15 -6 -8 3 -15 1 -15 -5 0
-6 -4 -8 -8 -5 -5 3 -19 -4 -30 -15 -12 -11 -22 -17 -22 -13 0 3 -6 1 -13 -5
-8 -6 -16 -9 -19 -6 -2 2 -24 -13 -47 -35 -23 -22 -46 -40 -50 -40 -3 0 -13
-10 -21 -21 -8 -12 -20 -27 -25 -33 -22 -23 -56 -76 -50 -76 4 0 -1 -7 -9 -16
-9 -8 -16 -22 -16 -30 0 -8 -5 -14 -11 -14 -5 0 -7 -4 -4 -10 3 -5 2 -10 -4
-10 -6 0 -8 -7 -5 -15 4 -8 2 -15 -3 -15 -5 0 -10 -6 -11 -12 -2 -32 -13 -62
-24 -70 -10 -6 -9 -8 2 -8 12 0 12 -2 2 -9 -8 -4 -13 -11 -13 -15 4 -27 -15
-34 -31 -11 -4 6 -8 -885 -8 -1978 0 -1344 3 -1986 10 -1982 6 4 7 12 4 18 -4
7 3 3 14 -8 11 -11 22 -33 24 -50 2 -16 6 -32 10 -35 4 -3 9 -15 11 -25 2 -11
9 -30 15 -43 7 -12 11 -26 8 -31 -3 -4 3 -17 12 -27 19 -20 36 -54 34 -66 -1
-5 5 -8 13 -8 8 0 15 -7 15 -15 0 -18 99 -117 110 -110 4 3 10 -1 13 -9 3 -7
22 -23 42 -35 20 -11 33 -15 29 -9 -4 7 2 5 13 -5 11 -9 27 -17 37 -17 9 0 14
-5 11 -10 -3 -6 2 -10 12 -11 35 -1 56 -8 63 -19 6 -9 9 -9 13 1 4 9 6 10 6 2
1 -7 8 -10 16 -7 8 4 15 2 15 -4 0 -5 14 -9 30 -8 17 1 30 -3 30 -8 0 -6 5 -4
10 4 8 13 10 13 10 0 0 -10 3 -11 12 -2 7 7 17 8 30 1 10 -5 18 -6 18 -1 0 5
23 6 50 2 28 -4 50 -4 50 -1 0 8 116 4 129 -4 6 -3 11 -3 11 2 0 4 18 8 40 8
22 0 40 -4 40 -8 0 -5 5 -5 11 -1 14 8 124 8 138 -1 6 -3 11 -2 11 3 0 4 23 6
50 2 28 -4 50 -4 50 -1 0 8 116 4 129 -4 6 -3 11 -3 11 2 0 4 18 8 40 8 22 0
40 -4 40 -8 0 -5 5 -5 11 -1 14 8 124 8 138 -1 6 -3 11 -2 11 3 0 4 23 6 50 2
28 -4 50 -4 50 -1 0 8 116 4 129 -4 6 -3 11 -3 11 2 0 4 18 8 40 8 22 0 40 -4
40 -8 0 -5 5 -5 11 -1 14 8 124 8 138 -1 6 -3 11 -2 11 3 0 4 23 6 50 2 28 -4
50 -4 50 -1 0 8 116 4 129 -4 6 -3 11 -3 11 2 0 4 18 8 40 8 22 0 40 -4 40 -8
0 -5 5 -5 11 -1 14 8 124 8 138 -1 6 -3 11 -2 11 3 0 4 23 6 50 2 28 -4 50 -4
50 -1 0 8 116 4 129 -4 6 -3 11 -3 11 2 0 4 18 8 40 8 22 0 40 -4 40 -8 0 -5
5 -5 11 -1 14 8 124 8 138 -1 6 -3 11 -2 11 3 0 4 23 6 50 2 28 -4 50 -4 50
-1 0 8 116 4 129 -4 6 -3 11 -3 11 2 0 4 18 8 40 8 22 0 40 -4 40 -8 0 -5 5
-5 11 -1 14 8 124 8 138 -1 6 -3 11 -2 11 3 0 4 23 6 50 2 28 -4 50 -4 50 -1
0 8 116 4 129 -4 6 -3 11 -3 11 2 0 4 18 8 40 8 22 0 40 -4 40 -8 0 -5 5 -5
11 -1 14 8 124 8 138 -1 6 -3 11 -2 11 3 0 4 23 6 50 2 28 -4 50 -4 50 -1 0 8
116 4 129 -4 6 -3 11 -3 11 2 0 4 18 8 40 8 22 0 40 -4 40 -9 0 -6 4 -6 10 0
6 6 31 8 60 4 29 -4 50 -2 50 3 0 5 6 5 13 -2 9 -7 17 -7 24 0 6 6 24 11 41
11 17 1 29 5 26 9 -3 5 1 6 9 3 8 -3 32 3 53 12 22 9 42 18 47 19 4 2 10 4 15
5 4 1 11 2 15 1 4 -1 10 6 13 14 3 8 10 12 15 9 5 -3 12 2 15 10 3 9 10 14 14
11 4 -3 13 2 20 10 7 8 17 12 23 8 6 -4 8 0 4 11 -4 9 -3 15 1 12 13 -7 53 24
46 35 -3 5 -2 9 3 8 19 -3 34 2 29 10 -3 4 8 23 24 41 17 19 30 40 30 47 0 7
4 13 9 13 10 0 27 39 23 52 -1 5 3 8 9 8 5 0 8 4 4 9 -3 5 2 17 11 25 8 9 13
16 10 16 -3 0 1 17 8 38 7 20 12 47 11 59 -1 12 3 19 8 16 6 -4 8 3 5 15 -4
12 -3 22 2 22 4 0 4 18 0 40 -4 23 -3 40 2 40 5 0 6 5 2 12 -9 14 -11 68 -3
68 4 0 3 18 -1 40 -4 23 -3 40 2 40 5 0 6 5 2 12 -9 14 -11 68 -3 68 4 0 3 18
-1 40 -4 23 -3 40 2 40 5 0 6 5 2 12 -9 14 -11 68 -3 68 4 0 3 18 -1 40 -4 23
-3 40 2 40 5 0 6 5 2 12 -9 14 -11 68 -3 68 4 0 3 18 -1 40 -4 23 -3 40 2 40
5 0 6 5 2 12 -9 14 -11 68 -3 68 4 0 3 18 -1 40 -4 23 -3 40 2 40 5 0 6 5 2
12 -9 14 -11 68 -3 68 4 0 3 18 -1 40 -4 23 -3 40 2 40 5 0 6 5 2 12 -9 14
-11 68 -3 68 4 0 3 18 -1 40 -4 23 -3 40 2 40 5 0 6 5 2 12 -9 14 -11 68 -3
68 4 0 3 18 -1 40 -4 23 -3 40 2 40 5 0 6 5 2 12 -9 14 -11 68 -3 68 4 0 3 18
-1 40 -4 23 -3 40 2 40 5 0 6 5 2 12 -9 14 -11 68 -3 68 4 0 3 18 -1 40 -4 23
-3 40 2 40 5 0 6 5 2 12 -9 14 -11 68 -3 68 4 0 3 18 -1 40 -4 23 -3 40 2 40
5 0 6 5 2 12 -9 14 -11 68 -3 68 4 0 3 18 -1 40 -4 23 -3 40 2 40 5 0 6 5 2
12 -9 14 -11 68 -3 68 4 0 3 18 -1 40 -4 23 -3 40 2 40 5 0 6 5 2 12 -9 14
-11 68 -3 68 4 0 3 18 -1 40 -4 23 -3 40 2 40 5 0 6 5 2 12 -9 14 -11 68 -3
68 4 0 3 18 -1 40 -4 23 -3 40 2 40 5 0 6 5 2 12 -9 14 -11 68 -3 68 4 0 3 18
-1 40 -4 23 -3 40 2 40 5 0 6 5 2 12 -9 14 -11 68 -3 68 4 0 3 18 -1 40 -4 23
-3 40 2 40 5 0 6 5 2 12 -9 14 -11 68 -3 68 4 0 3 18 -1 40 -4 23 -3 40 2 40
5 0 6 5 2 12 -9 14 -11 68 -3 68 4 0 3 18 -1 40 -4 23 -3 40 2 40 5 0 6 5 2
12 -9 14 -11 68 -3 68 4 0 3 18 -1 40 -4 23 -3 40 2 40 5 0 6 5 2 12 -9 14
-11 68 -3 68 4 0 3 18 -1 40 -4 23 -3 40 2 40 5 0 6 5 2 12 -9 14 -11 68 -3
68 4 0 3 18 -1 40 -4 23 -3 40 2 40 5 0 6 5 2 12 -9 14 -11 68 -3 68 4 0 3 18
-1 40 -4 23 -3 40 2 40 5 0 6 5 2 12 -10 16 -11 68 -1 68 5 0 6 4 3 8 -3 5 -6
27 -7 50 -2 23 -5 42 -8 42 -5 0 -9 22 -11 73 -1 9 -5 15 -10 12 -6 -3 -7 0
-4 8 3 8 1 18 -5 21 -6 4 -8 13 -5 20 3 7 -2 19 -10 26 -9 7 -13 16 -10 21 3
5 0 9 -5 9 -6 0 -11 9 -11 21 0 11 -4 18 -9 15 -5 -3 -11 4 -15 17 -3 12 -19
37 -36 55 -16 18 -30 38 -30 43 0 5 -8 13 -17 16 -10 4 -28 18 -40 31 -13 14
-23 21 -23 17 0 -4 -9 2 -20 15 -11 13 -20 20 -20 16 0 -4 -16 2 -35 14 -19
12 -35 19 -35 15 0 -3 -7 1 -16 9 -8 9 -20 14 -25 11 -5 -4 -9 -1 -9 5 0 6 -4
9 -9 5 -5 -3 -12 -1 -15 4 -4 5 -17 8 -31 6 -14 -1 -25 2 -25 7 0 5 -6 8 -12
5 -7 -2 -25 3 -40 11 -25 14 -25 17 -10 28 14 11 -346 13 -1960 14 -1750 0
-1977 -2 -1972 -15z"/>
</g>
</svg>
